<?xml version="1.0" encoding="UTF-8" standalone="no"?>
<!DOCTYPE svg PUBLIC "-//W3C//DTD SVG 1.1//EN" "http://www.w3.org/Graphics/SVG/1.1/DTD/svg11.dtd">
<svg width="100%" height="100%" viewBox="0 0 100 100" version="1.1" xmlns="http://www.w3.org/2000/svg" xmlns:xlink="http://www.w3.org/1999/xlink" xml:space="preserve" xmlns:serif="http://www.serif.com/" style="fill-rule:evenodd;clip-rule:evenodd;stroke-linecap:round;stroke-linejoin:bevel;stroke-miterlimit:1.5;">
    <g transform="matrix(1,0,0,1,-104.669,-350.025)">
        <g id="_00000000-ace5-00f5-0b01-d1b5ecd00dee" serif:id="00000000-ace5-00f5-0b01-d1b5ecd00dee" transform="matrix(1,0,0,1,214.669,350.025)">
            <rect x="-110" y="0" width="99.95" height="99.95" style="fill:none;"/>
            <g transform="matrix(1,0,0,1,-407.173,-21.1759)">
                <g id="ReverseNozzles" transform="matrix(1,0,0,-0.681818,297.173,115.232)">
                    <path d="M79.679,51.207L20.271,51.207L20.271,60.657L15.372,60.657L15.372,51.207L15.372,48.667L84.578,48.667L84.578,60.657L79.679,60.657L79.679,51.207Z" style="fill:rgb(152,152,152);stroke:rgb(162,162,162);stroke-width:2.34px;"/>
                </g>
                <g id="ReverseEngines" transform="matrix(1,0,0,-0.681818,297.173,115.232)">
                    <path d="M77.027,51.207L22.923,51.207L20.271,56.257L15.372,56.257L12.412,51.207L15.372,34L84.578,34L87.538,51.207L84.578,56.257L79.679,56.257L77.027,51.207Z" style="fill:rgb(204,204,204);stroke:rgb(162,162,162);stroke-width:2.34px;"/>
                </g>
            </g>
            <g id="OuterAileron" transform="matrix(-8.47158,-1.01568e-15,2.71974e-16,-2.02796,888.394,355.632)">
                <path d="M116.436,137.543L116.436,140.414L111.95,148.736L107.464,140.414L107.464,137.543L110.05,139.121L110.764,142.229L113.136,142.229L113.85,139.121L116.436,137.543Z" style="fill:rgb(188,188,188);stroke:rgb(224,224,224);stroke-width:0.49px;stroke-linejoin:round;"/>
            </g>
            <g id="FarWing" transform="matrix(-9.8092,-1.16934e-15,3.91386e-16,-2.97258,1038.14,482.392)">
                <path d="M116.436,137.05L116.436,140.414L111.95,147.966L107.464,140.414L107.464,137.05L112.001,139.068L116.436,137.05Z" style="fill:rgb(152,53,53);stroke:rgb(133,42,42);stroke-width:0.41px;stroke-linejoin:round;"/>
            </g>
            <g id="InnerAileron" transform="matrix(-6.46516,-7.75317e-16,2.05373e-16,-1.5298,663.774,280.359)">
                <path d="M116.126,132.164L116.126,138.684L111.946,143.34L107.774,138.488L107.774,132.278L110.403,136.854L113.497,136.854L116.126,132.164Z" style="fill:rgb(188,188,188);stroke:rgb(224,224,224);stroke-width:0.64px;stroke-linejoin:round;"/>
            </g>
            <g id="MidWing" transform="matrix(-5.57341,-6.38258e-16,5.20366e-16,-4.12222,563.943,639.95)">
                <path d="M116.436,137.05L116.436,143.115L111.95,147.966L107.464,143.115L107.464,137.05L111.95,139.681L116.436,137.05Z" style="fill:rgb(152,53,53);stroke:rgb(133,42,42);stroke-width:0.61px;stroke-linejoin:round;"/>
            </g>
            <g id="EngineBlock" transform="matrix(0.603209,-1.6563e-32,1.48702e-32,0.671875,-150.461,-33.925)">
                <rect x="139.9" y="152" width="20.05" height="16" style="fill:rgb(152,152,152);stroke:rgb(162,162,162);stroke-width:3.13px;stroke-linejoin:round;"/>
            </g>
            <g id="EngineNozzle" transform="matrix(1,-1.4406e-32,2.46519e-32,0.584375,-209.95,-15.325)">
                <path d="M159.95,168L139.9,168L143.91,152L155.94,152L159.95,168Z" style="fill:rgb(204,204,204);stroke:rgb(162,162,162);stroke-width:2.44px;stroke-linejoin:round;"/>
            </g>
            <g id="Body" transform="matrix(1,0,0,1.31809,-209.95,-155.576)">
                <path d="M165,170L134.85,170L142.388,129.623L157.463,129.623L165,170Z" style="fill:rgb(152,53,53);stroke:rgb(133,42,42);stroke-width:2.56px;stroke-linejoin:round;"/>
            </g>
            <g id="Livery" transform="matrix(1.27273,0,0,0.866667,-250.845,-77.3)">
                <path d="M155.45,166.5L144.45,166.5L147.2,151.5L152.7,151.5L155.45,166.5Z" style="fill:rgb(222,222,222);"/>
            </g>
            <g id="Glass" transform="matrix(1,0,0,0.873529,-209.95,-81.7765)">
                <path d="M157.463,152L142.388,152L146.156,118L153.694,118L157.463,152Z" style="fill:rgb(74,60,85);"/>
            </g>
        </g>
    </g>
</svg>
