<?xml version="1.0" encoding="UTF-8" standalone="no"?>
<!DOCTYPE svg PUBLIC "-//W3C//DTD SVG 1.1//EN" "http://www.w3.org/Graphics/SVG/1.1/DTD/svg11.dtd">
<svg width="100%" height="100%" viewBox="0 0 100 100" version="1.1" xmlns="http://www.w3.org/2000/svg" xmlns:xlink="http://www.w3.org/1999/xlink" xml:space="preserve" xmlns:serif="http://www.serif.com/" style="fill-rule:evenodd;clip-rule:evenodd;stroke-linecap:round;stroke-linejoin:bevel;stroke-miterlimit:1.5;">
    <g transform="matrix(1,0,0,1,-1831,-350)">
        <g id="_d09face5-1ced-a9e5-d1e5-b109a5d091e5" serif:id="d09face5-1ced-a9e5-d1e5-b109a5d091e5" transform="matrix(1,0,0,1,1271,350)">
            <rect x="560" y="0" width="100" height="99.95" style="fill:none;"/>
            <g>
                <g transform="matrix(0.886447,-1.73589e-17,2.18129e-17,-1.29201,-1052.61,573.516)">
                    <path d="M1875.59,386.311L1841.75,377.32L1841.75,382.72L1875.59,399.778L1875.59,386.311Z" style="fill:rgb(255,160,76);"/>
                    <path d="M1876.41,384.868L1842.57,375.877C1841.87,375.692 1841.09,375.755 1840.48,376.043C1839.86,376.332 1839.5,376.81 1839.5,377.32L1839.5,382.72C1839.5,383.213 1839.84,383.676 1840.41,383.968L1874.26,401.025C1874.94,401.371 1875.85,401.422 1876.61,401.159C1877.37,400.895 1877.85,400.361 1877.85,399.777L1877.85,386.311C1877.85,385.672 1877.28,385.098 1876.41,384.868ZM1875.59,386.311L1875.59,399.777L1841.75,382.72L1841.75,377.32L1875.59,386.311Z" style="fill:rgb(246,107,0);"/>
                </g>
                <g>
                    <g transform="matrix(0.413919,0,0,0.340659,327.422,59.0412)">
                        <g id="EngineBlock" transform="matrix(0.603209,-1.6563e-32,1.48702e-32,0.671875,519.564,-19.025)">
                            <rect x="139.9" y="152" width="20.05" height="16" style="fill:rgb(246,107,0);"/>
                            <path d="M159.95,172.369L139.9,172.369C137.688,172.369 135.895,170.413 135.895,168L135.895,152C135.895,149.587 137.688,147.631 139.9,147.631L159.95,147.631C162.162,147.631 163.955,149.587 163.955,152L163.955,168C163.955,170.413 162.162,172.369 159.95,172.369ZM159.95,168L159.95,152L139.9,152L139.9,168L159.95,168Z" style="fill:rgb(162,162,162);"/>
                        </g>
                        <g id="MainNozzle" transform="matrix(1,-1.27111e-32,2.46519e-32,0.515625,460.075,11.125)">
                            <path d="M159.95,166.061L139.9,166.061L141.91,152L157.94,152L159.95,166.061Z" style="fill:rgb(204,204,204);"/>
                            <path d="M159.95,171.754L139.9,171.754C139.122,171.754 138.392,170.871 137.938,169.382C137.484,167.893 137.362,165.98 137.61,164.243L139.62,150.183C139.952,147.867 140.873,146.307 141.91,146.307L157.94,146.307C158.977,146.307 159.898,147.867 160.23,150.183L162.24,164.243C162.488,165.98 162.366,167.893 161.912,169.382C161.458,170.871 160.728,171.754 159.95,171.754ZM159.95,166.061L157.94,152L141.91,152L139.9,166.061L159.95,166.061Z" style="fill:rgb(162,162,162);"/>
                        </g>
                    </g>
                    <g transform="matrix(-0.348962,-4.27355e-17,1.36072e-16,-1.11111,1229.56,513.247)">
                        <path d="M1873.06,384.972L1849.93,385.018L1849.78,394.49L1854.71,397.122L1868.1,397.122L1872.91,394.49L1873.06,384.972Z" style="fill:rgb(255,160,76);"/>
                        <path d="M1878.79,384.982L1878.64,394.499C1878.63,394.81 1878.37,395.116 1877.88,395.386L1873.07,398.018C1872.05,398.578 1870.15,398.922 1868.1,398.922L1854.71,398.922C1852.68,398.922 1850.81,398.585 1849.78,398.036L1844.84,395.403C1844.32,395.124 1844.04,394.805 1844.05,394.481L1844.2,385.008C1844.22,384.022 1846.76,383.224 1849.9,383.218L1873.03,383.173C1874.56,383.17 1876.03,383.359 1877.11,383.699C1878.2,384.039 1878.8,384.501 1878.79,384.982ZM1873.06,384.972L1849.93,385.018L1849.78,394.49L1854.71,397.122L1868.1,397.122L1872.91,394.49L1873.06,384.972Z" style="fill:rgb(246,107,0);"/>
                    </g>
                </g>
            </g>
            <g transform="matrix(-1,0,0,1,1219.97,0)">
                <g transform="matrix(0.886447,1.73589e-17,-2.18129e-17,-1.29201,-1052.61,573.516)">
                    <path d="M1875.59,386.311L1841.75,377.32L1841.75,382.72L1875.59,399.778L1875.59,386.311Z" style="fill:rgb(255,160,76);"/>
                    <path d="M1877.85,386.311L1877.85,399.778C1877.85,400.361 1877.37,400.895 1876.61,401.159C1875.85,401.422 1874.94,401.371 1874.26,401.025L1840.41,383.968C1839.84,383.676 1839.5,383.213 1839.5,382.72L1839.5,377.32C1839.5,376.81 1839.86,376.332 1840.48,376.043C1841.09,375.755 1841.87,375.692 1842.57,375.877L1876.41,384.868C1877.28,385.098 1877.85,385.672 1877.85,386.311ZM1875.59,386.311L1841.75,377.32L1841.75,382.72L1875.59,399.777L1875.59,386.311Z" style="fill:rgb(246,107,0);"/>
                </g>
                <g>
                    <g transform="matrix(0.413919,0,0,0.340659,327.422,59.0412)">
                        <g id="EngineBlock1" serif:id="EngineBlock" transform="matrix(0.603209,-1.6563e-32,1.48702e-32,0.671875,519.564,-19.025)">
                            <rect x="139.9" y="152" width="20.05" height="16" style="fill:rgb(246,107,0);"/>
                            <path d="M163.955,168L163.955,152C163.955,149.587 162.162,147.631 159.95,147.631L139.9,147.631C137.688,147.631 135.895,149.587 135.895,152L135.895,168C135.895,170.413 137.688,172.369 139.9,172.369L159.95,172.369C162.162,172.369 163.955,170.413 163.955,168ZM159.95,168L139.9,168L139.9,152L159.95,152L159.95,168Z" style="fill:rgb(162,162,162);"/>
                        </g>
                        <g id="MainNozzle1" serif:id="MainNozzle" transform="matrix(1,-1.27111e-32,2.46519e-32,0.515625,460.075,11.125)">
                            <path d="M159.95,166.061L139.9,166.061L141.91,152L157.94,152L159.95,166.061Z" style="fill:rgb(204,204,204);"/>
                            <path d="M162.24,164.243L160.23,150.183C159.898,147.867 158.977,146.307 157.94,146.307L141.91,146.307C140.873,146.307 139.952,147.867 139.62,150.183L137.61,164.243C137.362,165.98 137.484,167.893 137.938,169.382C138.392,170.871 139.122,171.754 139.9,171.754L159.95,171.754C160.728,171.754 161.458,170.871 161.912,169.382C162.366,167.893 162.488,165.98 162.24,164.243ZM159.95,166.061L139.9,166.061L141.91,152L157.94,152L159.95,166.061Z" style="fill:rgb(162,162,162);"/>
                        </g>
                    </g>
                    <g transform="matrix(-0.365759,-6.04047e-17,9.56835e-17,-1.11111,1260.83,513.247)">
                        <path d="M1873,384.972L1849.99,385.018L1849.84,394.49L1854.75,397.122L1868.07,397.122L1872.85,394.49L1873,384.972Z" style="fill:rgb(255,160,76);"/>
                        <path d="M1872.97,383.173L1849.96,383.218C1846.96,383.223 1844.54,384.022 1844.52,385.008L1844.37,394.48C1844.37,394.816 1844.64,395.146 1845.18,395.432L1850.09,398.064C1851.08,398.598 1852.85,398.922 1854.75,398.922L1868.07,398.922C1869.99,398.922 1871.77,398.59 1872.76,398.047L1877.54,395.414C1878.05,395.138 1878.32,394.822 1878.32,394.5L1878.47,384.982C1878.48,384.501 1877.9,384.039 1876.87,383.699C1875.84,383.359 1874.43,383.17 1872.97,383.173ZM1873,384.972L1872.85,394.49L1868.07,397.122L1854.75,397.122L1849.84,394.49L1849.99,385.018L1873,384.972Z" style="fill:rgb(246,107,0);"/>
                    </g>
                </g>
            </g>
            <g>
                <g transform="matrix(-0.54791,-6.70996e-17,5.06905e-17,-0.413919,905.152,68.0467)">
                    <g id="EngineBlock2" serif:id="EngineBlock" transform="matrix(0.603209,-1.6563e-32,1.48702e-32,0.671875,519.564,-19.025)">
                        <rect x="139.9" y="152" width="20.05" height="16" style="fill:rgb(246,107,0);"/>
                        <path d="M159.95,171.596L139.9,171.596C138.229,171.596 136.874,169.986 136.874,168L136.874,152C136.874,150.014 138.229,148.404 139.9,148.404L159.95,148.404C161.621,148.404 162.976,150.014 162.976,152L162.976,168C162.976,169.986 161.621,171.596 159.95,171.596ZM159.95,168L159.95,152L139.9,152L139.9,168L159.95,168Z" style="fill:rgb(162,162,162);"/>
                    </g>
                    <g id="MainNozzle2" serif:id="MainNozzle" transform="matrix(1,-1.27111e-32,2.46519e-32,0.515625,460.075,11.125)">
                        <path d="M159.95,166.061L139.9,166.061L141.91,152L157.94,152L159.95,166.061Z" style="fill:rgb(204,204,204);"/>
                        <path d="M159.95,170.746L139.9,170.746C139.304,170.746 138.745,169.998 138.404,168.743C138.062,167.488 137.981,165.884 138.187,164.446L140.197,150.386C140.46,148.541 141.145,147.315 141.91,147.315L157.94,147.315C158.705,147.315 159.39,148.541 159.653,150.386L161.663,164.446C161.869,165.884 161.788,167.488 161.446,168.743C161.105,169.998 160.546,170.746 159.95,170.746ZM159.95,166.061L157.94,152L141.91,152L139.9,166.061L159.95,166.061Z" style="fill:rgb(162,162,162);"/>
                    </g>
                </g>
                <g transform="matrix(1.04762,0,0,1.11111,-1354.91,-394.222)">
                    <path d="M1875.59,379.122L1838.37,391.768L1838.37,402.568L1875.59,397.1L1875.59,379.122Z" style="fill:rgb(255,160,76);"/>
                    <path d="M1877.5,379.123L1877.5,397.1C1877.5,397.987 1876.82,398.742 1875.89,398.879L1838.66,404.346C1838.11,404.427 1837.55,404.277 1837.12,403.935C1836.7,403.593 1836.46,403.093 1836.46,402.568L1836.46,391.767C1836.46,391.009 1836.96,390.331 1837.72,390.074L1874.95,377.429C1875.53,377.23 1876.18,377.313 1876.69,377.65C1877.2,377.987 1877.5,378.536 1877.5,379.123ZM1875.59,379.122L1838.37,391.768L1838.37,402.568L1875.59,397.1L1875.59,379.122Z" style="fill:rgb(246,107,0);"/>
                </g>
                <g transform="matrix(0.4295,0,0,1.22222,-228.553,-428.372)">
                    <path d="M1875.59,379.122L1847.43,379.168L1847.25,394.49L1853.26,397.122L1869.55,397.122L1875.41,394.49L1875.59,379.122Z" style="fill:rgb(255,160,76);"/>
                    <path d="M1880.25,379.129L1880.06,394.497C1880.06,394.86 1879.71,395.212 1879.08,395.498L1873.22,398.13C1872.34,398.527 1870.99,398.759 1869.55,398.759L1853.26,398.759C1851.84,398.759 1850.51,398.533 1849.62,398.146L1843.62,395.514C1842.95,395.221 1842.59,394.858 1842.59,394.483L1842.78,379.161C1842.79,378.262 1844.86,377.535 1847.41,377.531L1875.57,377.486C1876.82,377.484 1878.01,377.657 1878.89,377.965C1879.76,378.274 1880.26,378.693 1880.25,379.129ZM1875.59,379.122L1847.43,379.168L1847.25,394.49L1853.26,397.122L1869.55,397.122L1875.41,394.49L1875.59,379.122Z" style="fill:rgb(246,107,0);"/>
                </g>
            </g>
            <g transform="matrix(-1,0,0,1,1220,0)">
                <g transform="matrix(-0.54791,-6.70996e-17,5.06905e-17,-0.413919,905.312,68.0467)">
                    <g id="EngineBlock3" serif:id="EngineBlock" transform="matrix(0.603209,-1.6563e-32,1.48702e-32,0.671875,519.564,-19.025)">
                        <rect x="139.9" y="152" width="20.05" height="16" style="fill:rgb(246,107,0);"/>
                        <path d="M162.976,168L162.976,152C162.976,150.014 161.621,148.404 159.95,148.404L139.9,148.404C138.229,148.404 136.874,150.014 136.874,152L136.874,168C136.874,169.986 138.229,171.596 139.9,171.596L159.95,171.596C161.621,171.596 162.976,169.986 162.976,168ZM159.95,168L139.9,168L139.9,152L159.95,152L159.95,168Z" style="fill:rgb(162,162,162);"/>
                    </g>
                    <g id="MainNozzle3" serif:id="MainNozzle" transform="matrix(1,-1.27111e-32,2.46519e-32,0.515625,460.075,11.125)">
                        <path d="M159.95,166.061L139.9,166.061L141.91,152L157.94,152L159.95,166.061Z" style="fill:rgb(204,204,204);"/>
                        <path d="M161.663,164.446L159.653,150.386C159.39,148.541 158.705,147.315 157.94,147.315L141.91,147.315C141.145,147.315 140.46,148.541 140.197,150.386L138.187,164.446C137.981,165.884 138.062,167.488 138.404,168.743C138.745,169.998 139.304,170.746 139.9,170.746L159.95,170.746C160.546,170.746 161.105,169.998 161.446,168.743C161.788,167.488 161.869,165.884 161.663,164.446ZM159.95,166.061L139.9,166.061L141.91,152L157.94,152L159.95,166.061Z" style="fill:rgb(162,162,162);"/>
                    </g>
                </g>
                <g transform="matrix(1.04762,0,0,1.11111,-1354.91,-394.222)">
                    <path d="M1875.59,379.122L1838.37,391.768L1838.37,402.568L1875.59,397.1L1875.59,379.122Z" style="fill:rgb(255,160,76);"/>
                    <path d="M1874.95,377.429L1837.72,390.074C1836.96,390.331 1836.46,391.009 1836.46,391.767L1836.46,402.568C1836.46,403.093 1836.7,403.593 1837.12,403.935C1837.55,404.277 1838.11,404.427 1838.66,404.346L1875.89,398.879C1876.82,398.742 1877.5,397.987 1877.5,397.1L1877.5,379.123C1877.5,378.536 1877.2,377.987 1876.69,377.65C1876.18,377.313 1875.53,377.23 1874.95,377.429ZM1875.59,379.122L1875.59,397.1L1838.37,402.568L1838.37,391.768L1875.59,379.122Z" style="fill:rgb(246,107,0);"/>
                </g>
                <g transform="matrix(0.4295,0,0,1.22222,-228.393,-428.372)">
                    <path d="M1875.59,379.122L1847.43,379.168L1847.25,394.49L1853.26,397.122L1869.55,397.122L1875.41,394.49L1875.59,379.122Z" style="fill:rgb(255,160,76);"/>
                    <path d="M1875.57,377.486L1847.41,377.531C1844.86,377.535 1842.79,378.262 1842.78,379.161L1842.59,394.483C1842.59,394.858 1842.95,395.221 1843.62,395.514L1849.62,398.146C1850.51,398.533 1851.84,398.759 1853.26,398.759L1869.55,398.759C1870.99,398.759 1872.34,398.527 1873.22,398.13L1879.08,395.498C1879.71,395.212 1880.06,394.86 1880.06,394.497L1880.25,379.129C1880.26,378.693 1879.76,378.274 1878.89,377.965C1878.01,377.657 1876.82,377.484 1875.57,377.486ZM1875.59,379.122L1875.41,394.49L1869.55,397.122L1853.26,397.122L1847.25,394.49L1847.43,379.168L1875.59,379.122Z" style="fill:rgb(246,107,0);"/>
                </g>
            </g>
            <g transform="matrix(0.698988,0,0,0.51146,575.051,-119.358)">
                <path d="M65.662,388.241L34.338,388.241L29.971,378.551L41.416,338.947L58.584,338.947L70.029,378.551L65.662,388.241Z" style="fill:rgb(255,160,76);stroke:rgb(246,107,0);stroke-width:3.27px;"/>
            </g>
            <g transform="matrix(0.698988,0,0,0.414482,575.051,-86.6631)">
                <path d="M58.584,409.337L58.584,399.687L41.416,399.687L41.416,409.337L38.555,399.687L41.416,385.211L58.584,385.211L61.445,399.687L58.584,409.337Z" style="fill:rgb(255,160,76);stroke:rgb(246,107,0);stroke-width:3.48px;stroke-linejoin:round;"/>
            </g>
            <g transform="matrix(1,0,0,0.434653,560,-104.75)">
                <path d="M54,381.338L46,381.338L34,347.978L37.289,305.416L44.664,291.125L55.336,291.125L62.711,305.416L66,347.978L54,381.338Z" style="fill:rgb(255,160,76);"/>
                <path d="M54,385.94L46,385.94L44.459,384.272L32.459,350.912L32.031,347.173L35.32,304.61L36.001,301.896L43.375,287.606L44.664,286.524L55.336,286.524L56.625,287.606L63.999,301.896L64.68,304.61L67.969,347.173L67.541,350.912L55.541,384.272L54,385.94ZM54,381.338L66,347.978L62.711,305.416L55.336,291.125L44.664,291.125L37.289,305.416L34,347.978L46,381.338L54,381.338Z" style="fill:rgb(246,107,0);"/>
            </g>
            <g transform="matrix(0.4375,0,0,0.257831,588.1,-46.2197)">
                <path d="M66,347.978L49.975,380.707L34,347.978L66,347.978Z" style="fill:rgb(246,107,0);"/>
                <path d="M69.516,352.936L53.491,385.664C52.622,387.439 51.332,388.466 49.971,388.464C48.611,388.462 47.322,387.432 46.454,385.655L30.479,352.926C29.349,350.612 29.109,347.398 29.863,344.678C30.617,341.958 32.229,340.221 34,340.221L66,340.221C67.773,340.221 69.385,341.96 70.138,344.683C70.891,347.406 70.649,350.622 69.516,352.936ZM66,347.978L34,347.978L49.975,380.707L66,347.978Z" style="fill:white;"/>
            </g>
            <g transform="matrix(0.532977,0,0,0.638021,423.446,-82.9958)">
                <path d="M364,177.104L358.825,185.627L341.125,185.627L335.95,177.104L342.963,149.675L356.988,149.675L364,177.104Z" style="fill:rgb(53,53,53);"/>
                <path d="M367.347,178.521L362.172,187.045C361.533,188.098 360.239,188.762 358.825,188.762L341.125,188.762C339.711,188.762 338.417,188.098 337.778,187.045L332.603,178.521C332.215,177.882 332.101,177.15 332.28,176.449L339.293,149.02C339.663,147.574 341.192,146.54 342.962,146.54L356.987,146.54C358.758,146.54 360.287,147.574 360.657,149.02L367.67,176.449C367.849,177.15 367.735,177.882 367.347,178.521ZM364,177.104L356.988,149.675L342.963,149.675L335.95,177.104L341.125,185.627L358.825,185.627L364,177.104Z" style="fill:rgb(246,107,0);"/>
            </g>
        </g>
    </g>
</svg>
