<?xml version="1.0" encoding="UTF-8" standalone="no"?>
<!DOCTYPE svg PUBLIC "-//W3C//DTD SVG 1.1//EN" "http://www.w3.org/Graphics/SVG/1.1/DTD/svg11.dtd">
<svg width="100%" height="100%" viewBox="0 0 100 100" version="1.1" xmlns="http://www.w3.org/2000/svg" xmlns:xlink="http://www.w3.org/1999/xlink" xml:space="preserve" xmlns:serif="http://www.serif.com/" style="fill-rule:evenodd;clip-rule:evenodd;stroke-linecap:round;stroke-linejoin:round;stroke-miterlimit:1.5;">
    <g transform="matrix(1,0,0,1,-204.669,-350)">
        <g id="_00000001-51de-c0c0-5eed-be51deb0d1e5" serif:id="00000001-51de-c0c0-5eed-be51deb0d1e5" transform="matrix(1,0,0,1,314.669,350)">
            <rect x="-110" y="0" width="99.95" height="100" style="fill:none;"/>
            <g>
                <g id="InnerWing" transform="matrix(1.09015,0,0,1.02775,-331.448,-88.7568)">
                    <path d="M274,130.225C274,125.299 258.719,113.02 256.703,113.02L257.041,152.068L240.959,152.068L240.62,113.02C238.604,113.02 224,125.299 224,130.225L224,148.075C224,153.001 227.5,157 231.81,157L266.19,157C270.5,157 274,153.001 274,148.075L274,130.225Z" style="fill:rgb(206,206,206);stroke:rgb(95,113,114);stroke-width:1.89px;"/>
                </g>
                <g transform="matrix(0.952725,0,0,1,-390.762,-35.4747)">
                    <g id="ReverseNozzles" transform="matrix(1,-6.31433e-17,4.74308e-17,-1.05081,297.173,137.614)">
                        <path d="M75.624,32.821L24.326,32.821L24.326,60.657L17.824,60.657L17.824,32.821L82.126,32.821L82.126,60.657L75.624,60.657L75.624,32.821Z" style="fill:rgb(152,152,152);stroke:rgb(162,162,162);stroke-width:1.99px;stroke-linejoin:bevel;"/>
                    </g>
                    <g id="ReverseEngines" transform="matrix(1,-7.89219e-17,4.63317e-17,-1.08954,297.173,138.169)">
                        <path d="M76.04,34L23.91,34L23.91,56.257L16.635,56.257L13.783,51.207L16.635,34L83.315,34L86.167,51.207L83.315,56.257L76.04,56.257L76.04,34Z" style="fill:rgb(204,204,204);stroke:rgb(162,162,162);stroke-width:1.95px;stroke-linejoin:bevel;"/>
                    </g>
                </g>
                <g id="OuterWing" transform="matrix(1,0,0,0.359558,-310,11.1167)">
                    <path d="M293,154C293,150.413 281.61,85.585 279.85,85.585L271.895,85.585L271.895,147.5L228.055,147.5L228.055,85.585L220.1,85.585C218.34,85.585 206.95,150.413 206.95,154L206.95,167C206.95,170.587 208.81,173.5 211.1,173.5L288.85,173.5C291.14,173.5 293,170.587 293,167L293,154Z" style="fill:rgb(126,152,154);stroke:rgb(95,113,114);stroke-width:2.66px;"/>
                </g>
                <g id="RearAileron" transform="matrix(1.01407,0,0,0.509375,-313.968,-15.5656)">
                    <path d="M282,169.951L268.957,166.905L264.026,157.279L236.812,157.279L231.882,166.905L217.95,169.951L217.95,175L282,175L282,169.951Z" style="fill:rgb(206,206,206);stroke:rgb(95,113,114);stroke-width:2.49px;"/>
                </g>
                <g id="Body" transform="matrix(0.700375,0,0,0.68067,-235.101,-46.2854)">
                    <path d="M264.289,93.12C264.289,87.617 261.082,83.15 257.132,83.15L242.818,83.15C238.868,83.15 235.661,87.617 235.661,93.12L235.661,117.793L229.95,128.044L229.95,172.88C229.95,178.383 234.436,182.85 239.963,182.85L259.988,182.85C265.514,182.85 270,178.383 270,172.88L270,128.044L264.289,117.793L264.289,105.515L264.289,93.12Z" style="fill:rgb(126,152,154);stroke:rgb(95,113,114);stroke-width:2.9px;"/>
                </g>
                <g id="EngineBlock" transform="matrix(0.603209,-1.6563e-32,1.48702e-32,0.671875,-150.461,-27.125)">
                    <rect x="139.9" y="152" width="20.05" height="16" style="fill:rgb(152,152,152);stroke:rgb(162,162,162);stroke-width:3.13px;"/>
                </g>
                <g id="EngineNozzle" transform="matrix(1,-1.27111e-32,2.46519e-32,0.515625,-209.95,3.025)">
                    <path d="M159.95,166.061L139.9,166.061L141.91,152L157.94,152L159.95,166.061Z" style="fill:rgb(204,204,204);stroke:rgb(162,162,162);stroke-width:2.51px;"/>
                </g>
                <g id="Glass" transform="matrix(1,0,0,1.69797,-315.025,-215.429)">
                    <path d="M264,151.545L246,151.545L250.5,146.575L250.5,136.15L259.5,136.15L259.5,146.575L264,151.545Z" style="fill:rgb(74,60,85);"/>
                </g>
                <g id="Livery" transform="matrix(0.501076,-1.25071e-48,5.47382e-48,0.913958,-185.282,-87.3152)">
                    <rect x="241.95" y="147.425" width="16.05" height="26.15" style="fill:rgb(238,238,238);"/>
                </g>
            </g>
        </g>
    </g>
</svg>
