<?xml version="1.0" encoding="UTF-8" standalone="no"?>
<!DOCTYPE svg PUBLIC "-//W3C//DTD SVG 1.1//EN" "http://www.w3.org/Graphics/SVG/1.1/DTD/svg11.dtd">
<svg width="100%" height="100%" viewBox="0 0 100 100" version="1.1" xmlns="http://www.w3.org/2000/svg" xmlns:xlink="http://www.w3.org/1999/xlink" xml:space="preserve" xmlns:serif="http://www.serif.com/" style="fill-rule:evenodd;clip-rule:evenodd;stroke-linecap:round;stroke-linejoin:bevel;stroke-miterlimit:1.5;">
    <g transform="matrix(1,0,0,1,0,-119.089)">
        <g id="_00000002-f00d-feed-bee5-ba51c5b0d1ce" serif:id="00000002-f00d-feed-bee5-ba51c5b0d1ce" transform="matrix(1,0,0,1,-297.173,82.0394)">
            <rect x="297.173" y="37.05" width="99.95" height="99.95" style="fill:none;"/>
            <g>
                <g>
                    <g id="ReverseNozzles" transform="matrix(1,0,0,-0.681818,297.173,115.232)">
                        <path d="M79.679,51.207L20.271,51.207L20.271,60.657L15.372,60.657L15.372,51.207L15.372,48.667L84.578,48.667L84.578,60.657L79.679,60.657L79.679,51.207Z" style="fill:rgb(152,152,152);stroke:rgb(162,162,162);stroke-width:2.34px;"/>
                    </g>
                    <g id="ReverseEngines" transform="matrix(1,0,0,-0.681818,297.173,115.232)">
                        <path d="M77.027,51.207L22.923,51.207L20.271,56.257L15.372,56.257L12.412,51.207L15.372,34L84.578,34L87.538,51.207L84.578,56.257L79.679,56.257L77.027,51.207Z" style="fill:rgb(204,204,204);stroke:rgb(162,162,162);stroke-width:2.34px;"/>
                    </g>
                </g>
                <g id="Body" transform="matrix(1.12915,0,0,1.10144,-48.0264,-102.193)">
                    <path d="M376,168.2L368.371,204.271L349.975,204.271L331.579,204.271L323.95,168.2L336.963,133.8L343.648,136.029L343.648,147.926L356.302,147.926L356.302,136.029L362.988,133.8L376,168.2Z" style="fill:rgb(255,204,0);stroke:rgb(191,153,0);stroke-width:1.79px;stroke-linejoin:round;"/>
                </g>
                <g id="SpolierInner" transform="matrix(1,0,0,1,-2.82678,-62.95)">
                    <path d="M367,168.2L349.975,165.45L332.95,168.2L332.95,145.953L340.36,133.375L339.36,140.953L335.92,161.425L364.03,161.425L360.59,140.953L359.59,133.375L367,145.953L367,168.2Z" style="fill:rgb(238,238,238);stroke:rgb(194,194,194);stroke-width:2px;stroke-linejoin:round;"/>
                </g>
                <g id="RearWing" transform="matrix(1,0,0,1,-2.82678,-62.95)">
                    <path d="M386,191L349.975,185.75L313.95,191L312.412,180.375L331.963,165.35L367.988,165.35L387.538,180.375L386,191Z" style="fill:rgb(255,204,0);stroke:rgb(191,153,0);stroke-width:2px;stroke-linejoin:round;"/>
                </g>
                <g id="Spoiler" transform="matrix(1,0,0,1,-2.82678,-62.95)">
                    <path d="M381,190.35L349.975,185.75L318.95,190.35L318.95,187.875L334.36,181.375L334.36,187.95L349.975,185.75L365.59,187.95L365.59,181.375L381,187.875L381,190.35Z" style="fill:rgb(238,238,238);stroke:rgb(194,194,194);stroke-width:2px;stroke-linejoin:round;"/>
                </g>
                <g id="EngineBlock" transform="matrix(0.603209,-1.6563e-32,1.48702e-32,0.671875,256.712,9.925)">
                    <rect x="139.9" y="152" width="20.05" height="16" style="fill:rgb(152,152,152);stroke:rgb(162,162,162);stroke-width:3.13px;stroke-linejoin:round;"/>
                </g>
                <g id="MainNozzle" transform="matrix(1,-1.27111e-32,2.46519e-32,0.515625,197.223,40.075)">
                    <path d="M159.95,166.061L139.9,166.061L141.91,152L157.94,152L159.95,166.061Z" style="fill:rgb(204,204,204);stroke:rgb(162,162,162);stroke-width:2.51px;stroke-linejoin:round;"/>
                </g>
                <g id="Cockpit" transform="matrix(1,0,0,1.84758,-2.82678,-218.734)">
                    <path d="M364,171.325L358.825,179.849L341.125,179.849L335.95,171.325L342.963,149.675L356.988,149.675L364,171.325Z" style="fill:rgb(255,204,0);stroke:rgb(191,153,0);stroke-width:1.35px;stroke-linejoin:round;"/>
                </g>
                <g id="Glass" transform="matrix(1,0,0,1.52993,-2.82678,-129.125)">
                    <path d="M360,147.425L339.95,147.425L345.963,124.875L353.988,124.875L360,147.425Z" style="fill:rgb(74,60,85);"/>
                </g>
                <g id="Livery" transform="matrix(1.13718,0,0,-0.807803,-50.8367,239.925)">
                    <path d="M356.475,173.5L343.475,173.5L346.725,160.5L353.225,160.5L356.475,173.5Z" style="fill:rgb(238,238,238);"/>
                </g>
            </g>
        </g>
    </g>
</svg>
